Tinkerbell: De Verloren Schat (2009)(MGEP-4)(IPOD) 




Verenigde Staten
Animatie / Avontuur
81 minuten

geregisseerd door Klay Hall
met de stemmen van Mae Whitman, Kristin Chenoweth en Pamela Adlon

Opnieuw begint Tinker Bell aan een magisch avontuur ver weg van Nooitgedachtland. Met de hulp van haar nieuwe vriend Blaze (een lichtgevende insect), zal zij een nieuwe maansteen moeten vinden. Deze bevat magisch stof. De reis is allesbehalve saai, aangezien Tinker Bell verstrikt raakt in allerlei gevaarlijke avonturen, en gered moet worden door haar oude vriend Terence. Bovendien leert Tinker Bell onderweg het belang van verantwoordelijkheid nemen, en wat ware vriendschap is.


English

Tinker Bell journey far North of Never Land to patch things up with her friend Terence and restore a Pixie Dust TreeTinker Bell journey far North of Never Land to patch things up with her friend Terence and restore a Pixie Dust Tree



info

SOURCE = Tinker Bell And The Lost Treasure 2009 MULTi NTSC DVDR-KART3LDVD
Audio : Dutch

Format                           : MPEG-4
Format profile                   : Base Media
Codec ID                         : isom
File size                        : 933 MiB
Duration                         : 1h 20mn
Overall bit rate                 : 1 627 Kbps
Encoded date                     : UTC 2009-11-06 13:28:28
Tagged date                      : UTC 2009-11-06 13:28:28

Video
ID                               : 1
Format                           : MPEG-4 Visual
Format profile                   : Simple@L1
Format settings, BVOP            : No
Format settings, QPel            : No
Format settings, GMC             : No warppoints
Format settings, Matrix          : Default (H.263)
Codec ID                         : 20
Duration                         : 1h 20mn
Bit rate mode                    : Variable
Bit rate                         : 1 495 Kbps
Width                            : 720 pixels
Height                           : 406 pixels
Display aspect ratio             : 16/9
Frame rate mode                  : Constant
Frame rate                       : 23.976 fps
Resolution                       : 24 bits
Colorimetry                      : 4:2:0
Scan type                        : Progressive
Bits/(Pixel*Frame)               : 0.213
Stream size                      : 858 MiB (92%)
Writing library                  : Lavc51.40.4
Encoded date                     : UTC 2009-11-06 13:28:28
Tagged date                      : UTC 2009-11-06 13:28:28

Audio
ID                               : 2
Format                           : AAC
Format/Info                      : Advanced Audio Codec
Format version                   : Version 4
Format profile                   : LC
Format settings, SBR             : No
Codec ID                         : 40
Duration                         : 1h 20mn
Bit rate mode                    : Variable
Bit rate                         : 128 Kbps
Channel(s)                       : 2 channels
Channel positions                : L R
Sampling rate                    : 48.0 KHz
Resolution                       : 16 bits
Stream size                      : 73.2 MiB (8%)


Weblink : http://www.moviemeter.nl/film/60342 
Weblink : http://www.imdb.com/title/tt1216516

***************************************** 

Brought to you by 
pioen 
2Lions Team 



meer zien?? 
Kom dan eens kijken op ons forum 
 
http://www.2lions.ons-forum.nl 

2Lions-Team for all your Dutch MOVIES and more 

***************************************** 

DON T HIT AND RUN Niet gelijk afhaken als de film binnen is blijf seeden.